<?xml version="1.0" encoding="UTF-8" standalone="no"?>
<svg id="Calque_1" x="0px" y="0px" viewBox="0 0 490.96756 44.900002" xml:space="preserve" version="1.1" sodipodi:docname="deepsquare-logo-h.svg" width="490.96756" height="44.900002" inkscape:export-filename="deepsquare-logo-h.svg" inkscape:export-xdpi="2309.1313" inkscape:export-ydpi="2309.1313" inkscape:version="1.2 (dc2aeda, 2022-05-15)"
  xmlns:inkscape="http://www.inkscape.org/namespaces/inkscape"
  xmlns:sodipodi="http://sodipodi.sourceforge.net/DTD/sodipodi-0.dtd"
  xmlns="http://www.w3.org/2000/svg"
  xmlns:svg="http://www.w3.org/2000/svg">
  <defs id="defs56" />
  <sodipodi:namedview id="namedview54" pagecolor="#505050" bordercolor="#ffffff" borderopacity="1" inkscape:showpageshadow="0" inkscape:pageopacity="0" inkscape:pagecheckerboard="1" inkscape:deskcolor="#505050" showgrid="false" inkscape:zoom="2.0576317" inkscape:cx="304.23325" inkscape:cy="-13.364879" inkscape:window-width="1920" inkscape:window-height="1050" inkscape:window-x="1920" inkscape:window-y="10" inkscape:window-maximized="1" inkscape:current-layer="Calque_1" />
  <style type="text/css" id="style2"> .st0{fill:url(#SVGID_1_);} .st1{fill:url(#SVGID_00000118377560392378870740000012895073509314618772_);} .st2{fill:url(#SVGID_00000166651055900313009580000003427581264954084994_);} .st3{fill:#ffffff;} </style>
  <g id="g29" transform="translate(209.25544)">
    <linearGradient id="SVGID_1_" gradientUnits="userSpaceOnUse" x1="200.68359" y1="1131.4373" x2="179.4248" y2="1094.6162" gradientTransform="translate(-172.5,-1090.6143)">
      <stop offset="0" style="stop-color:#CD45FF" id="stop4" />
      <stop offset="1" style="stop-color:#6753FF" id="stop6" />
    </linearGradient>
    <path class="st0" d="m 0,8 v 33 l 5.3,-1.3 v 5.2 L 32.9,38.1 V 0 Z M 29.9,35.7 8.3,41 v -2.1 l 19.3,-4.8 v 0 h 0.1 V 6.9 L 5.3,12.5 V 36.6 L 3,37.1 V 10.4 L 29.9,3.8 Z m -21.6,-21 16.4,-4 v 21.1 l -16.4,4 c 0,0 0,-21.1 0,-21.1 z" id="path9" style="fill:url(#SVGID_1_)" />
    <linearGradient id="SVGID_00000073707060564735287570000007007815811799990441_" gradientUnits="userSpaceOnUse" x1="171.76849" y1="1126.2142" x2="204.71001" y2="1126.2142" gradientTransform="translate(-172.5,-1090.6143)">
      <stop offset="0" style="stop-color:#CD45FF" id="stop11" />
      <stop offset="0.716" style="stop-color:#CD45FF;stop-opacity:0" id="stop13" />
    </linearGradient>
    <path style="fill:url(#SVGID_00000073707060564735287570000007007815811799990441_)" d="m 8.3,35.7 v 3.1 L 22,35.5 v -3.1 z" id="path16" />
    <linearGradient id="SVGID_00000049183395798140354820000007116704627197480345_" gradientUnits="userSpaceOnUse" x1="193.60271" y1="1135.4829" x2="175.61749" y2="1104.3318" gradientTransform="translate(-172.5,-1090.6143)">
      <stop offset="0" style="stop-color:#CD45FF;stop-opacity:0" id="stop18" />
      <stop offset="0.266" style="stop-color:#6753FF" id="stop20" />
      <stop offset="0.654" style="stop-color:#6753FF" id="stop22" />
      <stop offset="1" style="stop-color:#CD45FF;stop-opacity:0" id="stop24" />
    </linearGradient>
    <path style="fill:url(#SVGID_00000049183395798140354820000007116704627197480345_)" d="M 8.3,41 V 14.7 l -3,-2.3 v 32.4 l 27.6,-6.8 -3,-2.3 z" id="path27" />
  </g>
  <g id="g51" transform="translate(209.25544)">
    <path class="st3" d="m 67.1,12 c -1,-0.9 -2.3,-1.5 -3.8,-1.7 -0.5,-0.1 -1,-0.1 -1.5,-0.1 -0.5,0 -0.9,0 -1.1,0 h -6.1 v 20 h 6.1 c 0.2,0 0.6,0 1.1,0 0.5,0 1,0 1.5,-0.1 1.5,-0.2 2.8,-0.8 3.8,-1.7 1,-0.9 1.8,-2.1 2.3,-3.5 0.5,-1.4 0.8,-3 0.8,-4.7 0,-1.7 -0.3,-3.3 -0.8,-4.7 -0.6,-1.4 -1.3,-2.6 -2.3,-3.5 z m 0.3,11.8 c -0.3,1.1 -0.9,2 -1.6,2.8 -0.7,0.7 -1.7,1.2 -2.8,1.4 -0.3,0.1 -0.7,0.1 -1.1,0.1 -0.4,0 -0.8,0 -1.2,0 h -4 v -16 h 4 c 0.4,0 0.8,0 1.2,0 0.4,0 0.8,0.1 1.1,0.1 1.2,0.2 2.1,0.7 2.8,1.4 0.7,0.7 1.2,1.7 1.6,2.8 0.3,1.1 0.5,2.4 0.5,3.7 0,1.4 -0.1,2.6 -0.5,3.7 z" id="path31" />
    <path class="st3" d="m 85.3,23.2 h 1.1 c 0,-1.8 -0.2,-3.3 -0.7,-4.5 -0.5,-1.3 -1.3,-2.2 -2.4,-2.9 -1,-0.7 -2.3,-1 -3.8,-1 -1.4,0 -2.7,0.3 -3.8,1 -1.1,0.6 -1.9,1.6 -2.5,2.8 -0.6,1.2 -0.9,2.6 -0.9,4.2 0,1.6 0.3,3 0.9,4.1 0.6,1.2 1.4,2.1 2.5,2.7 1.1,0.6 2.3,1 3.8,1 1.5,0 2.8,-0.4 3.9,-1.1 1.2,-0.7 2,-1.7 2.6,-3 l -1.9,-0.7 c -0.5,0.9 -1.1,1.6 -1.9,2.1 -0.8,0.5 -1.7,0.7 -2.8,0.7 -1.6,0 -2.8,-0.5 -3.6,-1.6 -0.8,-0.9 -1.2,-2.2 -1.2,-3.8 h 9.7 z m -9.4,-5 c 0.9,-1 2.1,-1.6 3.7,-1.6 1.5,0 2.7,0.5 3.5,1.5 0.7,0.8 1.1,2 1.2,3.4 h -9.6 c 0.1,-1.4 0.5,-2.5 1.2,-3.3 z" id="path33" />
    <path class="st3" d="m 101.5,23.2 h 1.1 c 0,-1.8 -0.2,-3.3 -0.7,-4.5 -0.5,-1.3 -1.3,-2.2 -2.4,-2.9 -1,-0.7 -2.3,-1 -3.8,-1 -1.4,0 -2.7,0.3 -3.8,1 -1.1,0.6 -1.9,1.6 -2.5,2.8 -0.6,1.2 -0.9,2.6 -0.9,4.2 0,1.6 0.3,3 0.9,4.1 0.6,1.2 1.4,2.1 2.5,2.7 1.1,0.6 2.3,1 3.8,1 1.5,0 2.8,-0.4 3.9,-1.1 1.2,-0.7 2,-1.7 2.6,-3 l -1.9,-0.7 c -0.5,0.9 -1.1,1.6 -1.9,2.1 -0.8,0.5 -1.7,0.7 -2.8,0.7 C 94,28.6 92.8,28.1 92,27 91.2,26.1 90.8,24.8 90.8,23.2 h 9.7 z m -9.4,-5 c 0.9,-1 2.1,-1.6 3.7,-1.6 1.5,0 2.7,0.5 3.5,1.5 0.7,0.8 1.1,2 1.2,3.4 H 90.9 C 91,20.1 91.4,19 92.1,18.2 Z" id="path35" />
    <path class="st3" d="m 115.6,15.8 c -1,-0.7 -2.2,-1 -3.5,-1 -1.4,0 -2.6,0.3 -3.6,1 -0.6,0.4 -1,0.9 -1.4,1.5 v -2.1 h -1.8 v 21.7 h 2.1 v -8.5 c 0.3,0.4 0.7,0.8 1.2,1.2 1,0.7 2.1,1 3.5,1 1.4,0 2.6,-0.3 3.6,-1 1,-0.7 1.7,-1.6 2.3,-2.8 0.5,-1.2 0.8,-2.5 0.8,-4 0,-1.5 -0.3,-2.8 -0.8,-4 -0.6,-1.4 -1.4,-2.3 -2.4,-3 z m 0.4,9.9 c -0.3,0.9 -0.9,1.6 -1.6,2.2 -0.7,0.5 -1.6,0.8 -2.6,0.8 -1.1,0 -1.9,-0.3 -2.6,-0.8 -0.7,-0.5 -1.2,-1.2 -1.6,-2.1 -0.3,-0.9 -0.5,-1.9 -0.5,-3.1 0,-1.2 0.2,-2.2 0.5,-3.1 0.3,-0.9 0.9,-1.6 1.5,-2.1 0.7,-0.5 1.6,-0.8 2.6,-0.8 1.1,0 2,0.3 2.7,0.8 0.7,0.5 1.2,1.2 1.6,2.2 0.3,0.9 0.5,1.9 0.5,3.1 0,1 -0.2,2 -0.5,2.9 z" id="path37" />
    <path class="st3" d="m 135.3,20.1 c -0.6,-0.4 -1.2,-0.7 -1.8,-0.9 -0.6,-0.2 -1.2,-0.4 -1.7,-0.5 l -3.5,-0.9 c -0.4,-0.1 -0.8,-0.3 -1.2,-0.4 -0.4,-0.2 -0.7,-0.4 -1,-0.7 -0.3,-0.3 -0.4,-0.6 -0.4,-1.1 0,-0.5 0.2,-0.9 0.5,-1.2 0.3,-0.3 0.8,-0.6 1.3,-0.8 0.5,-0.2 1.1,-0.3 1.7,-0.2 0.6,0 1.2,0.1 1.7,0.4 0.6,0.2 1,0.6 1.4,1 0.4,0.4 0.7,1 0.8,1.6 l 4.1,-0.7 c -0.3,-1.2 -0.9,-2.3 -1.6,-3.2 -0.7,-0.9 -1.6,-1.5 -2.7,-2 -1.1,-0.5 -2.3,-0.7 -3.7,-0.7 -1.4,0 -2.6,0.2 -3.7,0.6 -1.1,0.4 -2,1.1 -2.7,2 -0.7,0.9 -1,2 -1,3.3 0,1 0.2,1.7 0.5,2.4 0.3,0.6 0.7,1.1 1.2,1.5 0.5,0.4 1,0.7 1.5,0.9 0.5,0.2 1,0.4 1.4,0.5 l 5.2,1.5 c 0.4,0.1 0.7,0.3 1,0.4 0.3,0.1 0.5,0.3 0.6,0.5 0.1,0.2 0.2,0.3 0.3,0.5 0.1,0.2 0.1,0.4 0.1,0.6 0,0.6 -0.2,1 -0.6,1.4 -0.4,0.4 -0.9,0.7 -1.4,0.9 -0.6,0.2 -1.2,0.3 -1.8,0.3 -1.1,0 -2.1,-0.3 -3,-0.9 -0.9,-0.6 -1.4,-1.5 -1.7,-2.7 l -3.9,0.6 c 0.2,1.4 0.7,2.5 1.5,3.5 0.8,1 1.7,1.7 2.9,2.2 1.2,0.5 2.5,0.8 4,0.8 1,0 2,-0.1 3,-0.4 1,-0.3 1.8,-0.6 2.6,-1.2 0.8,-0.5 1.4,-1.2 1.8,-2 0.4,-0.8 0.7,-1.7 0.7,-2.8 0,-1 -0.2,-1.8 -0.6,-2.5 -0.7,-0.7 -1.2,-1.2 -1.8,-1.6 z" id="path39" />
    <path class="st3" d="m 150.5,16 c -0.1,-0.1 -0.2,-0.2 -0.3,-0.2 -1,-0.7 -2.2,-1 -3.6,-1 -1.4,0 -2.7,0.3 -3.7,1 -1.1,0.7 -1.9,1.6 -2.5,2.8 -0.6,1.2 -0.9,2.5 -0.9,4.1 0,1.5 0.3,2.8 0.9,4 0.6,1.2 1.4,2.1 2.4,2.8 1,0.7 2.2,1 3.6,1 1.4,0 2.6,-0.3 3.6,-1 v 7.2 h 3.8 V 15.1 h -3.3 z m -1.4,10.6 c -0.5,0.4 -1.2,0.6 -2,0.6 -0.8,0 -1.5,-0.2 -2,-0.6 -0.5,-0.4 -0.9,-1 -1.2,-1.6 -0.2,-0.7 -0.4,-1.5 -0.4,-2.3 0,-0.8 0.1,-1.6 0.4,-2.3 0.3,-0.7 0.7,-1.2 1.2,-1.7 0.5,-0.4 1.2,-0.6 2.1,-0.6 0.8,0 1.4,0.2 1.9,0.6 0.5,0.4 0.8,0.9 1.1,1.6 0.2,0.7 0.3,1.5 0.3,2.4 0,0.9 -0.1,1.7 -0.3,2.4 -0.3,0.6 -0.6,1.1 -1.1,1.5 z" id="path41" />
    <path class="st3" d="m 167.7,22.8 c 0,0.9 -0.1,1.7 -0.3,2.2 -0.2,0.6 -0.5,1 -0.8,1.3 -0.3,0.3 -0.7,0.5 -1,0.6 -0.4,0.1 -0.7,0.2 -1,0.2 -0.8,0 -1.4,-0.2 -1.9,-0.5 -0.4,-0.4 -0.8,-0.8 -1,-1.3 -0.2,-0.5 -0.3,-1.1 -0.3,-1.6 0,-0.5 -0.1,-1 -0.1,-1.3 v -7.1 h -3.8 v 8.4 c 0,0.2 0,0.6 0.1,1.2 0.1,0.6 0.1,1.2 0.3,1.8 0.2,0.7 0.5,1.3 0.9,1.9 0.4,0.6 1,1.1 1.7,1.5 0.7,0.4 1.7,0.6 2.9,0.6 1.5,0 2.7,-0.3 3.7,-1 0.5,-0.3 0.9,-0.6 1.2,-1 v 1.6 h 3.3 v -15 h -3.8 v 7.5 z" id="path43" />
    <path class="st3" d="m 187.3,17.5 c -0.5,-1 -1.3,-1.7 -2.3,-2.1 -1,-0.4 -2.2,-0.6 -3.5,-0.6 -1.8,0 -3.2,0.4 -4.3,1.2 -1,0.8 -1.8,1.8 -2.1,3 l 3.4,1.1 c 0.2,-0.7 0.7,-1.2 1.3,-1.4 0.6,-0.3 1.2,-0.4 1.7,-0.4 1,0 1.7,0.2 2.1,0.6 0.3,0.3 0.5,0.8 0.6,1.4 -0.6,0.1 -1.2,0.2 -1.8,0.3 -1,0.1 -1.8,0.3 -2.6,0.5 -0.8,0.2 -1.4,0.3 -2,0.5 -0.8,0.3 -1.4,0.7 -1.9,1.1 -0.5,0.4 -0.8,0.9 -1,1.5 -0.2,0.6 -0.3,1.2 -0.3,1.9 0,0.8 0.2,1.6 0.6,2.3 0.4,0.7 0.9,1.2 1.7,1.7 0.7,0.4 1.7,0.6 2.7,0.6 1.3,0 2.4,-0.2 3.2,-0.7 0.7,-0.4 1.3,-0.9 1.9,-1.6 v 1.8 H 188 V 21 c 0,-0.7 0,-1.3 -0.1,-1.9 -0.1,-0.5 -0.3,-1.1 -0.6,-1.6 z m -3.5,8.1 c -0.1,0.2 -0.3,0.5 -0.6,0.8 -0.3,0.3 -0.7,0.6 -1.1,0.8 -0.4,0.2 -1.1,0.4 -1.8,0.4 -0.4,0 -0.8,-0.1 -1.1,-0.2 -0.3,-0.1 -0.6,-0.3 -0.7,-0.6 -0.2,-0.2 -0.3,-0.5 -0.3,-0.9 0,-0.2 0.1,-0.5 0.2,-0.7 0.1,-0.2 0.3,-0.4 0.5,-0.6 0.2,-0.2 0.5,-0.3 0.9,-0.5 0.3,-0.1 0.7,-0.2 1.1,-0.3 0.4,-0.1 1,-0.2 1.7,-0.3 0.4,-0.1 1,-0.2 1.6,-0.3 0,0.3 0,0.6 0,0.9 -0.1,0.6 -0.2,1.1 -0.4,1.5 z" id="path45" />
    <path class="st3" d="m 199,15.1 c -0.5,0 -0.9,0.1 -1.3,0.2 -0.4,0.1 -0.8,0.3 -1.2,0.5 -0.5,0.3 -0.9,0.6 -1.2,1.1 -0.2,0.2 -0.3,0.4 -0.4,0.6 v -2.4 h -3.3 v 15 h 3.8 v -7.7 c 0,-0.6 0.1,-1.1 0.2,-1.5 0.2,-0.5 0.4,-0.9 0.7,-1.2 0.3,-0.3 0.7,-0.6 1.1,-0.8 0.4,-0.2 0.9,-0.3 1.5,-0.4 0.6,0 1,0 1.5,0.1 v -3.5 c -0.5,0 -1,0 -1.4,0 z" id="path47" />
    <path class="st3" d="m 214.6,23.7 h 1.8 c 0.2,-1.8 0,-3.4 -0.6,-4.7 -0.5,-1.3 -1.3,-2.4 -2.4,-3.1 -1.1,-0.7 -2.4,-1.1 -4,-1.1 -1.5,0 -2.8,0.3 -3.9,1 -1.1,0.7 -2,1.6 -2.7,2.8 -0.6,1.2 -1,2.6 -1,4.3 0,1.5 0.3,2.8 1,4 0.7,1.2 1.6,2.1 2.7,2.7 1.2,0.7 2.5,1 4.1,1 1.4,0 2.8,-0.4 4,-1.1 1.2,-0.8 2.1,-1.8 2.7,-3.2 l -3.8,-1.1 c -0.3,0.6 -0.7,1.1 -1.2,1.4 -0.5,0.3 -1.2,0.5 -1.9,0.5 -1.2,0 -2.1,-0.4 -2.7,-1.1 -0.4,-0.6 -0.7,-1.3 -0.8,-2.2 h 6.8 1.9 z m -5,-5.7 c 1.1,0 1.9,0.3 2.4,1 0.3,0.4 0.5,1.1 0.6,1.9 H 206 c 0.1,-0.7 0.4,-1.3 0.7,-1.7 0.7,-0.8 1.6,-1.2 2.9,-1.2 z" id="path49" />
  </g>
  <g aria-label="Empowers the" id="text216" style="fill:#ffffff;font-size:29.3333px;font-family:Mulish;-inkscape-font-specification:Mulish" transform="translate(-7.8681355)">
    <path d="M 7.8681355,30.275023 V 9.5950463 H 21.06812 V 11.589711 H 10.244133 v 7.186658 h 10.178655 v 2.023998 H 10.244133 v 7.450658 H 21.06812 v 2.023998 z" id="path1123" />
    <path d="M 24.852097,30.275023 V 18.952369 q 0,-0.821333 -0.088,-1.671998 -0.05867,-0.879999 -0.146667,-1.730665 h 2.287998 l 0.293333,3.226663 h -0.352 q 0.586666,-1.671998 1.847998,-2.58133 1.290665,-0.909333 3.10933,-0.909333 1.847998,0 2.991996,0.879999 1.173332,0.879999 1.583999,2.727997 h -0.44 q 0.557333,-1.671998 1.965331,-2.639997 1.407999,-0.967999 3.28533,-0.967999 2.434664,0 3.666662,1.407999 1.231999,1.378665 1.231999,4.370661 v 9.210657 h -2.375997 v -9.06399 q 0,-2.082664 -0.733333,-3.02133 -0.733332,-0.967999 -2.346664,-0.967999 -1.847998,0 -2.93333,1.290665 -1.055999,1.261332 -1.055999,3.402663 v 8.359991 h -2.375997 v -9.06399 q 0,-2.082664 -0.733332,-3.02133 -0.733333,-0.967999 -2.346664,-0.967999 -1.847998,0 -2.903997,1.290665 -1.055999,1.261332 -1.055999,3.402663 v 8.359991 z" id="path1125" />
    <path d="M 50.606684,36.611015 V 18.952369 q 0,-0.821333 -0.088,-1.671998 -0.05867,-0.879999 -0.146666,-1.730665 h 2.287997 l 0.322666,3.490663 h -0.351999 q 0.469333,-1.730665 1.906664,-2.727997 1.437332,-1.026666 3.431996,-1.026666 1.994665,0 3.431996,0.909333 1.466665,0.909332 2.287998,2.610663 0.821332,1.701332 0.821332,4.106662 0,2.375998 -0.821332,4.077329 -0.791999,1.701331 -2.258664,2.639997 -1.466665,0.909332 -3.46133,0.909332 -1.965331,0 -3.402663,-0.997332 -1.437331,-0.997332 -1.906664,-2.727997 h 0.322666 v 9.797322 z m 6.893325,-8.007991 q 2.111998,0 3.343997,-1.437331 1.261331,-1.466665 1.261331,-4.253329 0,-2.815996 -1.261331,-4.253328 -1.231999,-1.466665 -3.343997,-1.466665 -2.082664,0 -3.343996,1.466665 -1.231998,1.437332 -1.231998,4.253328 0,2.786664 1.231998,4.253329 1.261332,1.437331 3.343996,1.437331 z" id="path1127" />
    <path d="m 74.249281,30.539022 q -2.111997,0 -3.695996,-0.909332 -1.554664,-0.938666 -2.40533,-2.639997 -0.850666,-1.730665 -0.850666,-4.077329 0,-2.375997 0.850666,-4.077328 0.850666,-1.701332 2.40533,-2.610664 1.583999,-0.938666 3.695996,-0.938666 2.141331,0 3.695996,0.938666 1.583998,0.909332 2.434664,2.610664 0.879999,1.701331 0.879999,4.077328 0,2.346664 -0.879999,4.077329 -0.850666,1.701331 -2.434664,2.639997 -1.554665,0.909332 -3.695996,0.909332 z m 0,-1.935998 q 2.111998,0 3.343996,-1.437331 1.231999,-1.466665 1.231999,-4.253329 0,-2.815996 -1.261332,-4.253328 -1.231999,-1.466665 -3.314663,-1.466665 -2.082664,0 -3.314663,1.466665 -1.231998,1.437332 -1.231998,4.253328 0,2.786664 1.231998,4.253329 1.231999,1.437331 3.314663,1.437331 z" id="path1129" />
    <path d="M 88.670945,30.275023 83.214951,15.549706 h 2.522664 l 4.546661,12.965319 H 89.52161 l 4.693328,-12.965319 h 2.053331 l 4.605331,12.965319 h -0.73334 l 4.576,-12.965319 h 2.40533 l -5.48533,14.725317 H 99.348266 L 94.596271,17.104371 h 1.173332 l -4.781328,13.170652 z" id="path1131" />
    <path d="m 116.55661,30.539022 q -3.46133,0 -5.45599,-1.994664 -1.99467,-2.023998 -1.99467,-5.60266 0,-2.317331 0.88,-4.018662 0.88,-1.730665 2.464,-2.669331 1.584,-0.967999 3.63733,-0.967999 2.02399,0 3.40266,0.850666 1.37866,0.850666 2.112,2.434664 0.73333,1.554665 0.73333,3.695996 v 0.879999 h -11.41065 v -1.495999 h 9.85598 l -0.49866,0.381333 q 0,-2.346664 -1.056,-3.666662 -1.056,-1.319999 -3.13866,-1.319999 -2.2,0 -3.432,1.554665 -1.232,1.525332 -1.232,4.135996 v 0.263999 q 0,2.75733 1.34933,4.194662 1.37867,1.407998 3.84267,1.407998 1.31999,0 2.46399,-0.381332 1.17334,-0.410667 2.22933,-1.319999 l 0.82134,1.671998 q -0.968,0.938666 -2.464,1.466665 -1.46667,0.498666 -3.10933,0.498666 z" id="path1133" />
    <path d="M 125.91389,30.275023 V 19.099035 q 0,-0.879999 -0.0587,-1.789331 -0.0293,-0.909332 -0.11734,-1.759998 h 2.288 l 0.29333,3.578663 -0.41066,0.02933 q 0.29333,-1.319999 1.02666,-2.170664 0.73334,-0.850666 1.73067,-1.261332 0.99733,-0.44 2.08266,-0.44 0.44,0 0.76267,0.02933 0.352,0.02933 0.64533,0.146666 l -0.0293,2.111998 q -0.44,-0.146667 -0.82134,-0.176 -0.352,-0.05867 -0.82133,-0.05867 -1.29066,0 -2.25866,0.616 -0.93867,0.615999 -1.43733,1.583998 -0.46934,0.967999 -0.46934,2.053331 v 8.682657 z" id="path1135" />
    <path d="m 141.37247,30.539022 q -1.76,0 -3.28533,-0.469333 -1.52533,-0.498666 -2.52266,-1.378665 l 0.82133,-1.671998 q 1.08533,0.850666 2.34666,1.261332 1.29067,0.410666 2.66933,0.410666 1.76,0 2.64,-0.615999 0.90933,-0.645333 0.90933,-1.759998 0,-0.850666 -0.58666,-1.349332 -0.55733,-0.527999 -1.848,-0.821332 l -2.728,-0.557333 q -1.87733,-0.410666 -2.81599,-1.378665 -0.93867,-0.997332 -0.93867,-2.522664 0,-1.290665 0.67467,-2.258664 0.67466,-0.997332 1.96533,-1.554665 1.29066,-0.586666 3.02133,-0.586666 1.61333,0 2.96266,0.498666 1.37867,0.469333 2.288,1.378666 l -0.85067,1.642664 q -0.88,-0.850665 -2.02399,-1.261332 -1.11467,-0.439999 -2.31734,-0.439999 -1.73066,0 -2.61066,0.703999 -0.85066,0.674666 -0.85066,1.789331 0,0.850666 0.52799,1.407999 0.55734,0.527999 1.70134,0.791999 l 2.72799,0.557333 q 1.99467,0.439999 2.96267,1.378665 0.99733,0.909332 0.99733,2.463997 0,1.319998 -0.73333,2.317331 -0.73334,0.967998 -2.05334,1.495998 -1.29066,0.527999 -3.05066,0.527999 z" id="path1137" />
    <path d="m 163.9004,30.539022 q -2.17067,0 -3.31466,-1.231998 -1.144,-1.261332 -1.144,-3.783996 v -8.125324 h -2.87467 v -1.847998 h 2.87467 v -4.018662 l 2.37599,-0.674666 v 4.693328 h 4.224 v 1.847998 h -4.224 v 7.861324 q 0,1.759998 0.58667,2.522664 0.616,0.733333 1.81867,0.733333 0.55733,0 0.99733,-0.088 0.44,-0.117334 0.792,-0.264 v 1.994664 q -0.41067,0.176 -0.99734,0.264 -0.55733,0.117333 -1.11466,0.117333 z" id="path1139" />
    <path d="M 168.94567,30.275023 V 8.685714 h 2.376 v 10.119988 h -0.38133 q 0.616,-1.730664 2.05333,-2.610663 1.46666,-0.909333 3.37333,-0.909333 2.64,0 3.93066,1.437332 1.29067,1.407998 1.29067,4.282662 v 9.269323 h -2.376 v -9.122657 q 0,-2.053331 -0.82133,-2.991996 -0.792,-0.938666 -2.58133,-0.938666 -2.05334,0 -3.28533,1.261332 -1.20267,1.261332 -1.20267,3.314663 v 8.477324 z" id="path1141" />
    <path d="m 192.67627,30.539022 q -3.46133,0 -5.45599,-1.994664 -1.99467,-2.023998 -1.99467,-5.60266 0,-2.317331 0.88,-4.018662 0.88,-1.730665 2.464,-2.669331 1.584,-0.967999 3.63733,-0.967999 2.02399,0 3.40266,0.850666 1.37866,0.850666 2.112,2.434664 0.73333,1.554665 0.73333,3.695996 v 0.879999 h -11.41065 v -1.495999 h 9.85598 l -0.49866,0.381333 q 0,-2.346664 -1.056,-3.666662 -1.056,-1.319999 -3.13866,-1.319999 -2.2,0 -3.432,1.554665 -1.232,1.525332 -1.232,4.135996 v 0.263999 q 0,2.75733 1.34933,4.194662 1.37867,1.407998 3.84267,1.407998 1.31999,0 2.46399,-0.381332 1.17333,-0.410667 2.22933,-1.319999 l 0.82134,1.671998 q -0.968,0.938666 -2.464,1.466665 -1.46667,0.498666 -3.10933,0.498666 z" id="path1143" />
  </g>
  <g aria-label="Grid" id="text355" style="fill:#ffffff;font-size:29.3333px;font-family:Mulish;-inkscape-font-specification:Mulish" transform="translate(-7.8681355)">
    <path d="m 456.53716,30.539022 q -3.40266,0 -5.69066,-1.261332 -2.28799,-1.261332 -3.43199,-3.637329 -1.144,-2.375997 -1.144,-5.69066 0,-3.28533 1.20266,-5.661327 1.20267,-2.375997 3.46133,-3.666662 2.25867,-1.2906654 5.456,-1.2906654 2.25866,0 3.90133,0.6746654 1.67199,0.645333 2.99199,1.935998 l -0.90933,1.906665 q -0.968,-0.850666 -1.87733,-1.349332 -0.88,-0.498666 -1.848,-0.733333 -0.968,-0.263999 -2.25866,-0.263999 -3.66667,0 -5.632,2.229331 -1.936,2.199997 -1.936,6.247992 0,4.077329 1.87734,6.247993 1.90666,2.170664 5.89599,2.170664 1.46666,0 2.78666,-0.263999 1.34933,-0.293333 2.61067,-0.821333 l -0.528,1.319999 v -7.274659 h -5.28 v -1.906664 h 7.36266 v 9.591989 q -1.26133,0.674666 -3.19733,1.085332 -1.90666,0.410666 -3.81333,0.410666 z" id="path1146" />
    <path d="M 468.15312,30.275023 V 19.099035 q 0,-0.879999 -0.0587,-1.789331 -0.0293,-0.909332 -0.11733,-1.759998 h 2.288 l 0.29333,3.578663 -0.41067,0.02933 q 0.29334,-1.319999 1.02667,-2.170664 0.73333,-0.850666 1.73066,-1.261332 0.99734,-0.44 2.08267,-0.44 0.44,0 0.76266,0.02933 0.352,0.02933 0.64534,0.146666 l -0.0293,2.111998 q -0.44,-0.146667 -0.82133,-0.176 -0.352,-0.05867 -0.82133,-0.05867 -1.29067,0 -2.25867,0.616 -0.93866,0.615999 -1.43733,1.583998 -0.46933,0.967999 -0.46933,2.053331 v 8.682657 z" id="path1148" />
    <path d="M 478.85974,30.275023 V 15.549706 h 2.376 V 30.275023 Z M 478.56641,12.20571 V 9.5363797 h 2.93333 V 12.20571 Z" id="path1150" />
    <path d="m 491.41437,30.539022 q -1.936,0 -3.40267,-0.909332 -1.46666,-0.938666 -2.28799,-2.639997 -0.792,-1.701331 -0.792,-4.077329 0,-2.40533 0.792,-4.106662 0.82133,-1.701331 2.28799,-2.610663 1.46667,-0.909333 3.40267,-0.909333 1.99466,0 3.43199,0.997333 1.46667,0.997332 1.96533,2.698663 h -0.352 V 8.685714 h 2.376 v 21.589309 h -2.34666 v -3.519996 h 0.32266 q -0.46933,1.759998 -1.93599,2.786663 -1.46667,0.997332 -3.46133,0.997332 z m 0.49866,-1.935998 q 2.08267,0 3.344,-1.437331 1.26133,-1.466665 1.26133,-4.253329 0,-2.815996 -1.26133,-4.253328 -1.26133,-1.466665 -3.344,-1.466665 -2.08266,0 -3.34399,1.466665 -1.232,1.437332 -1.232,4.253328 0,2.786664 1.232,4.253329 1.26133,1.437331 3.34399,1.437331 z" id="path1152" />
  </g>
</svg>
